<svg id="visual" viewBox="0 0 900 600" width="900" height="600" xmlns="http://www.w3.org/2000/svg" xmlns:xlink="http://www.w3.org/1999/xlink" version="1.1"><path d="M0 382L15 379.3C30 376.7 60 371.3 90 369.2C120 367 150 368 180 366.7C210 365.3 240 361.7 270 371.8C300 382 330 406 360 413.3C390 420.7 420 411.3 450 401.7C480 392 510 382 540 374C570 366 600 360 630 359.2C660 358.3 690 362.7 720 375.8C750 389 780 411 810 406.8C840 402.7 870 372.3 885 357.2L900 342L900 601L885 601C870 601 840 601 810 601C780 601 750 601 720 601C690 601 660 601 630 601C600 601 570 601 540 601C510 601 480 601 450 601C420 601 390 601 360 601C330 601 300 601 270 601C240 601 210 601 180 601C150 601 120 601 90 601C60 601 30 601 15 601L0 601Z" fill="#F33F49" stroke-linecap="round" stroke-linejoin="miter"></path></svg>