<svg id="visual" viewBox="0 0 900 600" width="900" height="600" xmlns="http://www.w3.org/2000/svg" xmlns:xlink="http://www.w3.org/1999/xlink" version="1.1"><path d="M0 229L15 233.5C30 238 60 247 90 238C120 229 150 202 180 204.5C210 207 240 239 270 248.8C300 258.7 330 246.3 360 236.2C390 226 420 218 450 210.3C480 202.7 510 195.3 540 201.5C570 207.7 600 227.3 630 238C660 248.7 690 250.3 720 253.8C750 257.3 780 262.7 810 251C840 239.3 870 210.7 885 196.3L900 182L900 0L885 0C870 0 840 0 810 0C780 0 750 0 720 0C690 0 660 0 630 0C600 0 570 0 540 0C510 0 480 0 450 0C420 0 390 0 360 0C330 0 300 0 270 0C240 0 210 0 180 0C150 0 120 0 90 0C60 0 30 0 15 0L0 0Z" fill="#F33F49" stroke-linecap="round" stroke-linejoin="miter"></path></svg>